Ground reaction force (.MOT) by Lee-Son Toolkit																		
nRows=72																		
nColumns=19																		
																		
name T_01_fixed_grf.mot																		
datacolumns 19																		
datarows 72																		
range 0 0.071																		
endheader																		
time	1_ground_force_vx	1_ground_force_vy	1_ground_force_vz	1_ground_force_px	1_ground_force_py	1_ground_force_pz	2_ground_force_vx	2_ground_force_vy	2_ground_force_vz	2_ground_force_px	2_ground_force_py	2_ground_force_pz	1_ground_torque_x	1_ground_torque_y	1_ground_torque_z	2_ground_torque_x	2_ground_torque_y	2_ground_torque_z
0	0	0	0	0	0	0	6.81719	-32.6697	-9.33378	0.096203	0	0.118072	0	0	0	0	-3.5108	0
0.001	0	0	0	0	0	0	6.99444	-32.4958	-9.11358	0.0952997	0	0.12021	0	0	0	0	-3.51715	0
0.002	0	0	0	0	0	0	7.03824	-32.8422	-9.11525	0.0936734	0	0.115369	0	0	0	0	-3.45641	0
0.003	0	0	0	0	0	0	6.90463	-33.1867	-9.0684	0.0934488	0	0.117666	0	0	0	0	-3.46763	0
0.004	0	0	0	0	0	0	7.0383	-32.1512	-9.2439	0.0956677	0	0.122884	0	0	0	0	-3.5209	0
0.005	0	0	0	0	0	0	6.77091	-33.3601	-9.24122	0.0937255	0	0.11788	0	0	0	0	-3.43599	0
0.006	0	0	0	0	0	0	7.16993	-32.3263	-9.29057	0.0931934	0	0.121654	0	0	0	0	-3.51845	0
0.007	0	0	0	0	0	0	6.81619	-33.0162	-9.37503	0.09522	0	0.117496	0	0	0	0	-3.46558	0
0.008	0	0	0	0	0	0	6.95029	-31.8013	-9.11514	0.0956071	0	0.120339	0	0	0	0	-3.48922	0
0.009	0	0	0	0	0	0	7.08167	-32.3274	-9.4225	0.0944878	0	0.122437	0	0	0	0	-3.55544	0
0.01	0	0	0	0	0	0	6.94858	-32.6678	-9.15485	0.0937018	0	0.119634	0	0	0	0	-3.44311	0
0.011	0	0	0	0	0	0	6.90571	-33.0163	-9.15702	0.0956492	0	0.12195	0	0	0	0	-3.58771	0
0.012	0	0	0	0	0	0	6.94982	-32.8457	-9.37595	0.0961129	0	0.12049	0	0	0	0	-3.54593	0
0.013	0	0	0	0	0	0	7.17142	-33.0191	-9.19987	0.0947665	0	0.11845	0	0	0	0	-3.50237	0
0.014	0	0	0	0	0	0	6.90592	-32.148	-9.11384	0.0958318	0	0.121495	0	0	0	0	-3.5202	0
0.015	0	0	0	0	0	0	6.86082	-32.8413	-9.15571	0.0950577	0	0.120803	0	0	0	0	-3.51546	0
0.016	0	0	0	0	0	0	6.90357	-32.6669	-9.15633	0.0925759	0	0.119022	0	0	0	0	-3.43217	0
0.017	0	0	0	0	0	0	6.90458	-32.6692	-9.24215	0.0949214	0	0.122149	0	0	0	0	-3.501	0
0.018	0	0	0	0	0	0	6.94748	-33.3619	-9.20119	0.0917531	0	0.117794	0	0	0	0	-3.46985	0
0.019	0	0	0	0	0	0	6.85983	-33.0154	-9.2901	0.0934037	0	0.116769	0	0	0	0	-3.46753	0
0.02	0	0	0	0	0	0	7.12537	-32.3247	-9.20325	0.0926451	0	0.122744	0	0	0	0	-3.53417	0
0.021	0	0	0	0	0	0	7.08241	-32.3241	-9.16143	0.093886	0	0.120272	0	0	0	0	-3.54638	0
0.022	0	0	0	0	0	0	7.03952	-32.6703	-9.1117	0.0965114	0	0.120792	0	0	0	0	-3.53755	0
0.023	0	0	0	0	0	0	6.99348	-32.1505	-9.20378	0.0944945	0	0.124019	0	0	0	0	-3.57973	0
0.024	0	0	0	0	0	0	6.9053	-32.6697	-9.24422	0.0954994	0	0.12095	0	0	0	0	-3.52544	0
0.025	0	0	0	0	0	0	6.99258	-33.0166	-9.24386	0.0932413	0	0.119087	0	0	0	0	-3.47519	0
0.026	0	0	0	0	0	0	7.12506	-33.1912	-9.20136	0.091999	0	0.119578	0	0	0	0	-3.50561	0
0.027	0	0	0	0	0	0	6.99258	-32.6732	-9.46499	0.0942052	0	0.121213	0	0	0	0	-3.52834	0
0.028	0	0	0	0	0	0	6.90607	-32.4923	-8.93619	0.0954215	0	0.120596	0	0	0	0	-3.4935	0
0.029	0	0	0	0	0	0	7.08393	-32.6696	-9.02537	0.0958641	0	0.119473	0	0	0	0	-3.52863	0
0.03	0	0	0	0	0	0	6.81894	-32.8413	-9.10915	0.0986365	0	0.120785	0	0	0	0	-3.53906	0
0.031	0	0	0	0	0	0	7.1707	-32.6721	-9.15724	0.093973	0	0.122614	0	0	0	0	-3.55579	0
0.032	0	0	0	0	0	0	6.64142	-31.7992	-9.19969	0.0990463	0	0.121111	0	0	0	0	-3.49701	0
0.033	0	0	0	0	0	0	6.90517	-32.6682	-9.15619	0.0949175	0	0.120237	0	0	0	0	-3.49801	0
0.034	0	0	0	0	0	0	6.99625	-32.3211	-8.93579	0.0975942	0	0.121856	0	0	0	0	-3.54171	0
0.035	0	0	0	0	0	0	6.72938	-33.0121	-9.06868	0.0964835	0	0.117116	0	0	0	0	-3.49822	0
0.036	0	0	0	0	0	0	7.0379	-32.8429	-9.15546	0.0942643	0	0.119011	0	0	0	0	-3.47264	0
0.037	0	0	0	0	0	0	6.90492	-32.8415	-9.15657	0.0944188	0	0.119604	0	0	0	0	-3.49797	0
0.038	0	0	0	0	0	0	7.08098	-32.6732	-9.37991	0.0929021	0	0.120483	0	0	0	0	-3.5405	0
0.039	0	0	0	0	0	0	6.9049	-32.4949	-9.15589	0.0948237	0	0.122073	0	0	0	0	-3.50947	0
0.04	0	0	0	0	0	0	6.9935	-32.3247	-9.28846	0.0952041	0	0.123492	0	0	0	0	-3.54604	0
0.041	0	0	0	0	0	0	6.72854	-32.147	-9.24103	0.0972843	0	0.122303	0	0	0	0	-3.47596	0
0.042	0	0	0	0	0	0	6.50431	-33.1835	-9.32959	0.0933981	0	0.115653	0	0	0	0	-3.36876	0
0.043	0	0	0	0	0	0	6.77537	-30.9339	-9.11704	0.0997184	0	0.123696	0	0	0	0	-3.57347	0
0.044	0	0	0	0	0	0	6.85819	-33.1901	-9.4224	0.0917511	0	0.118083	0	0	0	0	-3.48128	0
0.045	0	0	0	0	0	0	6.99399	-32.4943	-9.02377	0.0947176	0	0.121303	0	0	0	0	-3.49289	0
0.046	0	0	0	0	0	0	7.16947	-33.5392	-9.24734	0.0915706	0	0.116652	0	0	0	0	-3.50839	0
0.047	0	0	0	0	0	0	6.90516	-32.322	-9.19993	0.0953333	0	0.121571	0	0	0	0	-3.49724	0
0.048	0	0	0	0	0	0	6.81884	-32.1484	-9.19811	0.0989593	0	0.121039	0	0	0	0	-3.50808	0
0.049	0	0	0	0	0	0	7.08381	-32.3239	-9.11325	0.0962883	0	0.120855	0	0	0	0	-3.53266	0
0.05	0	0	0	0	0	0	7.03654	-32.6718	-9.33406	0.0929691	0	0.121033	0	0	0	0	-3.51747	0
0.051	0	0	0	0	0	0	7.13091	-32.3252	-9.02203	0.100396	0	0.123203	0	0	0	0	-3.60155	0
0.052	0	0	0	0	0	0	6.90765	-32.3223	-9.11238	0.0983006	0	0.120875	0	0	0	0	-3.54785	0
0.053	0	0	0	0	0	0	6.85886	-33.1866	-9.15757	0.0917604	0	0.117758	0	0	0	0	-3.45533	0
0.054	0	0	0	0	0	0	6.9504	-31.9781	-9.2901	0.0968766	0	0.1236	0	0	0	0	-3.57538	0
0.055	0	0	0	0	0	0	6.86183	-32.6699	-9.28812	0.0967402	0	0.119222	0	0	0	0	-3.51558	0
0.056	0	0	0	0	0	0	6.77267	-32.3197	-9.15521	0.0961059	0	0.120921	0	0	0	0	-3.47978	0
0.057	0	0	0	0	0	0	6.90526	-32.3231	-9.24945	0.0947073	0	0.119788	0	0	0	0	-3.54654	0
0.058	0	0	0	0	0	0	6.8597	-32.8412	-9.20178	0.0932969	0	0.119647	0	0	0	0	-3.49546	0
0.059	0	0	0	0	0	0	6.90547	-32.84	-9.02296	0.0950096	0	0.120639	0	0	0	0	-3.49796	0
0.06	0	0	0	0	0	0	7.03905	-32.4958	-9.02684	0.0952276	0	0.121295	0	0	0	0	-3.55684	0
0.061	0	0	0	0	0	0	6.86138	-32.4946	-9.15804	0.0954676	0	0.119666	0	0	0	0	-3.51214	0
0.062	0	0	0	0	0	0	6.95038	-32.6692	-9.15876	0.0954431	0	0.117839	0	0	0	0	-3.51026	0
0.063	0	0	0	0	0	0	6.99492	-31.8025	-9.11213	0.0967572	0	0.124045	0	0	0	0	-3.53019	0
0.064	0	0	0	0	0	0	6.90621	-31.9771	-9.29006	0.0969452	0	0.121769	0	0	0	0	-3.5404	0
0.065	0	0	0	0	0	0	6.76946	-33.1864	-9.24269	0.0918769	0	0.120234	0	0	0	0	-3.45196	0
0.066	0	0	0	0	0	0	6.94941	-32.15	-9.24588	0.0951729	0	0.122266	0	0	0	0	-3.52807	0
0.067	0	0	0	0	0	0	6.90372	-33.3594	-9.0698	0.0918151	0	0.115873	0	0	0	0	-3.44049	0
0.068	0	0	0	0	0	0	6.99312	-32.8411	-9.06933	0.0931389	0	0.118886	0	0	0	0	-3.47482	0
0.069	0	0	0	0	0	0	6.95012	-32.3206	-9.0252	0.0952692	0	0.121341	0	0	0	0	-3.51093	0
0.07	0	0	0	0	0	0	6.99439	-33.0159	-9.11291	0.0949807	0	0.11834	0	0	0	0	-3.51012	0
0.071	0	0	0	0	0	0	6.72727	-32.4944	-9.3354	0.094454	0	0.118074	0	0	0	0	-3.48378	0
